HIERARCHY
ROOT SpineBase
{
  OFFSET 0.000000 0.000000 0.000000
  CHANNELS 6 Xposition Yposition Zposition Zrotation Xrotation Yrotation
  JOINT SpineMid
  {
    OFFSET 0.000000 30.101347 0.000000
    CHANNELS 3 Zrotation Xrotation Yrotation
    JOINT SpineShoulder
    {
      OFFSET 0.047857 22.249769 -0.834043
      CHANNELS 3 Zrotation Xrotation Yrotation
      JOINT Neck
      {
        OFFSET 0.029687 7.318836 -0.617700
        CHANNELS 3 Zrotation Xrotation Yrotation
        JOINT Head
        {
          OFFSET 2.665348 13.132765 -0.768002
          CHANNELS 3 Zrotation Xrotation Yrotation
          End Site
          {
            OFFSET 0 0 0
          }
        }
      }
      JOINT ShoulderLeft
      {
        OFFSET -14.540246 -3.787966 -6.503873
        CHANNELS 3 Zrotation Xrotation Yrotation
        JOINT ElbowLeft
        {
          OFFSET -1.398208 -25.000459 -1.524677
          CHANNELS 3 Zrotation Xrotation Yrotation
          JOINT WristLeft
          {
            OFFSET 1.192357 -21.844871 -7.880120
            CHANNELS 3 Zrotation Xrotation Yrotation
            JOINT HandLeft
            {
              OFFSET 1.325853 -3.125572 -0.395638
              CHANNELS 3 Zrotation Xrotation Yrotation
              JOINT HandTipLeft
              {
                OFFSET -0.699189 -6.968440 -1.435359
                CHANNELS 3 Zrotation Xrotation Yrotation
                End Site
                {
                  OFFSET 0 0 0
                }
              }
              JOINT ThumbLeft
              {
                OFFSET -2.256661 -0.947006 -2.746448
                CHANNELS 3 Zrotation Xrotation Yrotation
                End Site
                {
                  OFFSET 0 0 0
                }
              }
            }
          }
        }
      }
      JOINT ShoulderRight
      {
        OFFSET 17.261833 -3.535237 3.589622
        CHANNELS 3 Zrotation Xrotation Yrotation
        JOINT ElbowRight
        {
          OFFSET -6.446083 -21.505826 -23.188583
          CHANNELS 3 Zrotation Xrotation Yrotation
          JOINT WristRight
          {
            OFFSET -6.689545 9.393634 -17.007336
            CHANNELS 3 Zrotation Xrotation Yrotation
            JOINT HandRight
            {
              OFFSET -2.383904 3.353031 -5.864135
              CHANNELS 3 Zrotation Xrotation Yrotation
              JOINT HandTipRight
              {
                OFFSET -4.435419 -3.237546 -2.583764
                CHANNELS 3 Zrotation Xrotation Yrotation
                End Site
                {
                  OFFSET 0 0 0
                }
              }
              JOINT ThumbRight
              {
                OFFSET 0.838888 -6.522309 -0.050497
                CHANNELS 3 Zrotation Xrotation Yrotation
                End Site
                {
                  OFFSET 0 0 0
                }
              }
            }
          }
        }
      }
    }
  }
  JOINT HipLeft
  {
    OFFSET -6.349089 0.481146 -6.002048
    CHANNELS 3 Zrotation Xrotation Yrotation
    JOINT KneeLeft
    {
      OFFSET -4.604530 -29.608080 1.039317
      CHANNELS 3 Zrotation Xrotation Yrotation
      JOINT AnkleLeft
      {
        OFFSET -1.437391 -36.846657 10.505302
        CHANNELS 3 Zrotation Xrotation Yrotation
        JOINT FootLeft
        {
          OFFSET 1.593047 -9.709529 -7.179303
          CHANNELS 3 Zrotation Xrotation Yrotation
          End Site
          {
            OFFSET 0 0 0
          }
        }
      }
    }
  }
  JOINT HipRight
  {
    OFFSET 6.708454 0.204037 -1.520123
    CHANNELS 3 Zrotation Xrotation Yrotation
    JOINT KneeRight
    {
      OFFSET 3.156244 -28.919281 2.320610
      CHANNELS 3 Zrotation Xrotation Yrotation
      JOINT AnkleRight
      {
        OFFSET -4.579441 -39.558483 11.137153
        CHANNELS 3 Zrotation Xrotation Yrotation
        JOINT FootRight
        {
          OFFSET 0.686551 -8.928349 -6.281062
          CHANNELS 3 Zrotation Xrotation Yrotation
          End Site
          {
            OFFSET 0 0 0
          }
        }
      }
    }
  }
}
MOTION
Frames: 8
Frame Time: 0.033333
-16.719227 77.663818 363.160829 -0.000000 0.000000 -18.944484 0.000000 0.000000 18.944484 -0.000000 0.000000 0.000000 -0.000000 0.000000 0.000000 0.000000 0.000000 0.000000 -0.000000 0.000000 0.000000 -0.000000 0.000000 0.000000 -0.000000 0.000000 0.000000 -0.000000 0.000000 0.000000 0.000000 0.000000 0.000000 0.000000 0.000000 0.000000 -0.000000 0.000000 0.000000 -0.000000 0.000000 0.000000 -0.000000 0.000000 0.000000 -0.000000 0.000000 0.000000 0.000000 0.000000 0.000000 0.000000 0.000000 0.000000 0.000000 0.000000 18.944484 -0.000000 0.000000 0.000000 -0.000000 0.000000 0.000000 0.000000 0.000000 0.000000 0.000000 0.000000 18.944484 -0.000000 0.000000 0.000000 -0.000000 0.000000 0.000000 0.000000 0.000000 0.000000
-16.638979 77.549857 362.866390 -0.007844 0.094023 -19.478421 0.038747 -0.086026 19.478457 -0.000000 0.000000 0.000000 0.369632 -0.737844 0.173795 0.000000 0.000000 0.000000 -0.000000 0.000000 0.000000 -0.000000 0.000000 0.000000 -0.180581 -2.547665 -1.065724 0.891276 2.153215 0.914243 0.000000 0.000000 0.000000 0.000000 0.000000 0.000000 0.199049 2.423409 -0.924698 6.253274 -8.549129 7.577861 -0.072917 0.367628 -0.243455 -5.099655 5.755899 -5.022097 0.000000 0.000000 0.000000 0.000000 0.000000 0.000000 0.038747 -0.086026 19.478457 -0.000000 0.000000 0.000000 0.256327 -0.727149 -0.308543 0.000000 0.000000 0.000000 0.038747 -0.086026 19.478457 -0.000000 0.000000 0.000000 -0.000000 0.000000 0.000000 0.000000 0.000000 0.000000
-16.565079 77.457920 362.605460 -0.004221 0.156431 -19.986085 0.057434 -0.145567 19.986163 -0.000000 0.000000 0.000000 0.630341 -1.282103 0.304274 0.000000 0.000000 0.000000 -0.104022 1.063396 -0.052133 0.105007 -1.063300 0.054073 -0.430542 -4.648927 -1.949047 1.720112 3.877840 1.603587 0.000000 0.000000 0.000000 0.000000 0.000000 0.000000 0.515189 4.514174 -1.853148 11.755190 -14.332699 14.708148 -0.016559 0.545036 -0.339854 -8.762353 10.283211 -8.778513 0.000000 0.000000 0.000000 0.000000 0.000000 0.000000 0.057434 -0.145567 19.986163 -0.161905 -0.965262 -0.009844 0.629144 -0.301093 -0.553070 0.000000 0.000000 0.000000 -0.857995 -0.798715 19.858723 1.082867 0.303241 0.117031 -0.356907 1.108508 0.337561 0.000000 0.000000 0.000000
-16.497525 77.388005 362.378037 0.010852 0.187300 -20.468158 0.055330 -0.179270 20.468227 -0.000000 0.000000 0.000000 0.779031 -1.630233 0.387738 0.000000 0.000000 0.000000 -0.138615 1.433747 -0.069944 0.140409 -1.433573 0.073435 -0.745288 -6.519812 -2.743602 2.520131 5.375050 2.169598 0.000000 0.000000 0.000000 0.000000 0.000000 0.000000 0.940476 6.264209 -2.786881 15.841838 -17.731693 20.594496 0.131819 0.579847 -0.301429 -11.153383 13.234050 -11.456228 0.000000 0.000000 0.000000 0.000000 0.000000 0.000000 0.055330 -0.179270 20.468227 -0.227563 -1.317688 -0.016038 0.859708 -0.289464 -0.733080 0.000000 0.000000 0.000000 -1.119817 -0.891213 20.320815 1.760108 -0.463732 0.332865 -0.835513 1.911305 0.206417 0.000000 0.000000 0.000000
-16.436318 77.340113 362.184123 0.037365 0.186682 -20.925144 0.031772 -0.187715 20.925136 -0.000000 0.000000 0.000000 0.813507 -1.780276 0.421780 0.000000 0.000000 0.000000 -0.161188 1.690888 -0.082284 0.163687 -1.690648 0.087078 -1.134456 -8.303984 -3.513393 3.318135 6.778492 2.672605 0.000000 0.000000 0.000000 0.000000 0.000000 0.000000 1.466763 7.669691 -3.725870 18.176839 -19.326337 24.833094 0.326628 0.538512 -0.161104 -12.498207 14.574174 -13.285231 0.000000 0.000000 0.000000 0.000000 0.000000 0.000000 -0.804305 0.176533 20.802942 0.371924 -2.226112 0.099899 1.034044 -0.153223 -0.843863 0.000000 0.000000 0.000000 -1.288674 -0.785953 20.788102 1.858765 -0.912863 0.358783 -0.836154 1.932104 0.157728 0.000000 0.000000 0.000000
-16.381457 77.314244 362.023716 0.075318 0.154608 -21.357368 -0.013840 -0.171420 21.357246 -0.000000 0.000000 0.000000 0.732486 -1.730681 0.405342 0.000000 0.000000 0.000000 -0.171595 1.832487 -0.089191 0.174536 -1.832209 0.094726 -1.619490 -10.115689 -4.312712 4.140519 8.195236 3.153181 0.000000 0.000000 0.000000 0.000000 0.000000 0.000000 2.085781 8.729286 -4.668494 18.655318 -19.563673 27.297832 0.532480 0.474733 0.054544 -12.963808 14.354824 -14.425569 0.000000 0.000000 0.000000 0.000000 0.000000 0.000000 -0.981643 0.160032 21.227037 0.455524 -2.439256 0.101043 1.151667 0.116126 -0.882701 0.000000 0.000000 0.000000 -1.373348 -0.481703 21.261183 1.721328 -1.504000 0.341386 -0.334202 1.302087 -0.241725 0.000000 0.000000 0.000000
-16.352404 77.381081 361.919388 0.102847 0.104513 -22.046635 -0.056097 -0.135476 22.046475 -0.000000 0.000000 0.000000 0.474363 -1.259937 0.288733 0.000000 0.000000 0.000000 -0.177162 1.992990 -0.097476 0.180661 -1.992676 0.103699 -2.220543 -12.681208 -5.485181 5.171589 10.098843 3.814785 0.000000 0.000000 0.000000 0.000000 0.000000 0.000000 1.722449 9.467880 -4.463472 16.377181 -17.462822 25.910314 0.742665 0.400052 0.423618 -12.317356 10.546680 -14.288478 0.000000 0.000000 0.000000 0.000000 0.000000 0.000000 -1.112367 0.177698 21.909950 0.485700 -2.552423 0.095551 1.194402 0.606959 -0.801560 0.000000 0.000000 0.000000 -1.049517 0.313831 22.073849 0.713464 -2.380772 0.151187 -0.042893 0.457273 -0.201662 0.000000 0.000000 0.000000
-16.325134 77.418432 361.823613 0.141532 0.004755 -22.422400 -0.129018 -0.058381 22.422329 -0.000000 0.000000 0.000000 -0.000000 0.000000 0.000000 0.000000 0.000000 0.000000 -0.170786 1.882458 -0.091969 1.223788 -2.460470 -0.272857 -4.429884 -13.268300 -5.573123 6.830003 11.012788 3.768521 0.000000 0.000000 0.000000 0.000000 0.000000 0.000000 2.275139 10.521814 -5.324527 13.431969 -15.640853 25.250590 1.619870 0.439070 1.856411 -11.854938 7.387328 -15.756120 0.000000 0.000000 0.000000 0.000000 0.000000 0.000000 -1.209728 0.114806 22.301238 0.543069 -2.482188 0.077956 0.872367 1.305851 -0.436378 0.000000 0.000000 0.000000 -0.870410 0.996697 22.543150 0.018646 -3.113806 0.019929 0.489734 -0.460847 -0.495653 0.000000 0.000000 0.000000
